<?xml version="1.0" encoding="utf-8"?>
<!-- Generator: Adobe Illustrator 16.0.0, SVG Export Plug-In . SVG Version: 6.00 Build 0)  -->
<!DOCTYPE svg PUBLIC "-//W3C//DTD SVG 1.1//EN" "http://www.w3.org/Graphics/SVG/1.1/DTD/svg11.dtd">
<svg version="1.1" id="Capa_1" xmlns="http://www.w3.org/2000/svg" xmlns:xlink="http://www.w3.org/1999/xlink" x="0px" y="0px"
	 width="512px" height="512px" viewBox="0 0 512 512" enable-background="new 0 0 512 512" xml:space="preserve">
<g>
	<g>
		<circle fill="#D3D3D3" cx="364" cy="140.062" r="32"/>
	</g>
</g>
<g>
	<g>
		<path fill="#D3D3D3" d="M506.478,165.937c-10.68-27.194-30.264-66.432-62.915-98.927c-32.535-32.385-71.355-51.408-98.193-61.666
			c-29.465-11.262-62.945-4.163-85.296,18.082l-78.537,78.17c-23.281,23.171-29.991,58.824-16.698,88.72
			c4.122,9.271,8.604,18.341,13.395,27.103L5.858,389.794C2.107,393.545,0,398.632,0,403.936v88c0,11.046,8.954,20,20,20h88
			c11.046,0,20-8.954,20-20v-36l36-0.001c11.046,0,20-8.954,20-20v-35.999h36c11.046,0,20-8.954,20-20s-8.954-20-20-20h-56
			c-11.046,0-20,8.954-20,20v35.999l-36,0.001c-11.046,0-20,8.954-20,20v36H40V412.22l177.354-177.354
			c6.517-6.516,7.737-16.639,2.958-24.517c-6.931-11.425-13.298-23.633-18.923-36.285c-6.599-14.841-3.237-32.57,8.366-44.119
			l78.537-78.169c11.213-11.159,28.011-14.718,42.798-9.068c23.222,8.876,56.689,25.214,84.256,52.652
			c27.734,27.604,44.62,61.567,53.899,85.197c5.791,14.748,2.272,31.503-8.965,42.687l-79.485,79.114
			c-11.575,11.52-28.852,14.887-44.017,8.58c-12.507-5.202-24.619-11.382-36-18.367c-9.412-5.778-21.729-2.83-27.507,6.584
			c-5.777,9.414-2.831,21.73,6.583,27.508c13.152,8.072,27.137,15.207,41.562,21.207c30.142,12.539,64.524,5.801,87.595-17.161
			l79.485-79.112C511.044,229.157,518.101,195.534,506.478,165.937z"/>
	</g>
</g>
</svg>
