<?xml version="1.0" encoding="iso-8859-1"?>
<!-- Generator: Adobe Illustrator 18.0.0, SVG Export Plug-In . SVG Version: 6.00 Build 0)  -->
<!DOCTYPE svg PUBLIC "-//W3C//DTD SVG 1.1//EN" "http://www.w3.org/Graphics/SVG/1.1/DTD/svg11.dtd">
<svg version="1.1" id="Capa_1" xmlns="http://www.w3.org/2000/svg" xmlns:xlink="http://www.w3.org/1999/xlink" x="0px" y="0px"
	 viewBox="0 0 496.333 496.333" style="enable-background:new 0 0 496.333 496.333;" xml:space="preserve">
<g id="XMLID_196_">
	<path id="XMLID_198_" d="M494.399,302.169c-1.711-2.119-4.287-3.316-7.012-3.258c-21.996,0.523-42.166-1.378-59.707-4.327
		c-19.488-3.273-37.897-10.018-54.992-19.662c-48.295,12.227-94.762,18.99-97.471,19.37c-0.795,0.117-1.611,0.174-2.406,0.174
		c-3.94,0-7.778-1.369-10.852-3.901c-3.689-3.058-5.912-7.535-6.146-12.329c-0.014-0.373-0.381-12.292,3.258-29.903
		c6.212-30.003,24.473-76.496,75.973-111.185c-8.406-20.959-23.158-38.511-31.732-47.556c-1.244-1.313-3.092-1.854-4.853-1.412
		c-1.743,0.439-3.124,1.786-3.603,3.528c-7.278,26.541-29.275,46.585-29.275,46.585c-28.459,30.635-38.808,60.323-41.048,85.178
		c-10.452-13.06-26.332-21.59-44.358-21.59c-22.561,0-41.918,13.116-51.088,32.121c-3.904,8.058-8.738,15.584-14.188,22.637
		c-3.15-9.197-7.189-18.488-11.512-27.751c11.979,4.171,24.618-1.937,26.762-14.73c2.906-13.049-15.998-54.898-16.582-54.615
		c0.168,0.215-22.126,27.77-24.633,40.005c-6.881-12.593-14.355-24.307-21.733-34.772c1.149,0.448,2.209,1.104,3.439,1.329
		c9.603,1.77,17.909-4.801,17.944-15.392c0.512-10.782-19.822-41.791-20.172-41.551c0.137,0.117-15.273,26.456-15.434,36.545
		c-4.68-5.924-9.005-11.094-12.776-15.42c5.735-5.98,5.835-16.281-0.847-24.031C32.149,97.373-0.049,88.553,0,88.951
		c0.43,0.075,8.059,31.457,14.137,39.066c6.098,7.027,15.736,8.888,22.928,4.744c3.074,4.461,6.547,9.651,10.316,15.583
		c-10.602-2.542-36.416,5.939-36.299,6.072c0.279-0.208,19.836,23.639,28.373,27.518c8.791,3.534,18.954-0.976,21.906-10.164
		c5.574,9.985,11.14,20.884,16.255,32.311c-12.606-4.67-44.091,0.871-43.991,1.104c0.448-0.268,18.922,31.099,28.228,37.413
		c9.582,5.788,22.498,3.457,28.114-6.525c3.063,9.193,5.91,18.36,8.517,27.1c0.945,2.975,1.843,5.715,2.775,8.599
		c-3.193,2.999-6.478,5.914-9.969,8.581l-3.539,2.69c-1.146,0.872-1.593,2.368-1.146,3.722c0.468,1.355,1.73,2.268,3.174,2.268
		h7.324c3.373,0,6.682,0.392,9.986,0.781c1.096,3.348,2.226,6.837,3.223,9.936c6.845,21.613,12.059,36.574,12.127,36.565
		c0.117,0.316,0.367,0.572,0.666,0.631c0.516,0.091,0.945-0.265,1.014-0.83c-0.068,0.034,2.277-15.873-0.484-39.225
		c-0.131-1.189-0.449-2.576-0.611-3.796c8.557,2.732,16.662,6.786,24.055,12.127c8.838,6.397,19.639,10.186,31.299,10.56
		c8.939,35.435,53.014,71.959,106.176,71.959c40.953,0,76.557-14.843,94.848-36.724c2.906-3.487,7.941-4.327,11.83-1.969
		c28.006,17.039,53.809,41.94,67.814,56.553c2.209,2.309,5.5,3.232,8.574,2.401c3.086-0.83,5.463-3.272,6.228-6.38l22.244-91.923
		C496.727,307.06,496.092,304.279,494.399,302.169z"/>
	<path id="XMLID_197_" d="M272.811,277.455c0,0,90.34-12.933,149.549-35.485c59.211-22.562,56.553-116.352,48.232-148.143
		c-0.602-2.243-2.344-3.995-4.604-4.586c-0.529-0.141-1.082-0.215-1.629-0.215c-1.711,0-3.373,0.69-4.616,1.96
		c-24.642,25.393-61.854,34.365-61.854,34.365C267.758,168.447,272.811,277.455,272.811,277.455z"/>
</g>
<g>
</g>
<g>
</g>
<g>
</g>
<g>
</g>
<g>
</g>
<g>
</g>
<g>
</g>
<g>
</g>
<g>
</g>
<g>
</g>
<g>
</g>
<g>
</g>
<g>
</g>
<g>
</g>
<g>
</g>
</svg>
